<svg width="179" height="157" viewBox="0 0 179 157" fill="none" xmlns="http://www.w3.org/2000/svg">
<mask id="path-1-inside-1" fill="white">
<path fill-rule="evenodd" clip-rule="evenodd" d="M3.71319 84.9315C1.7802 81.5834 2.92733 77.3023 6.27537 75.3693L130.117 3.86929C133.465 1.93629 137.746 3.08342 139.679 6.43147L151.679 27.2161C146.418 30.2536 144.615 36.9811 147.653 42.2424C150.69 47.5036 157.418 49.3062 162.679 46.2686L174.679 67.0532C176.612 70.4013 175.465 74.6824 172.117 76.6154L48.2754 148.115C44.9273 150.048 40.6462 148.901 38.7132 145.553L26.7132 124.769C31.9744 121.731 33.777 115.004 30.7395 109.742C27.7019 104.481 20.9744 102.679 15.7132 105.716L3.71319 84.9315Z"/>
</mask>
<path d="M151.679 27.2161L153.179 29.8142C154.614 28.9857 155.106 27.151 154.277 25.7161L151.679 27.2161ZM162.679 46.2686L165.277 44.7686C164.879 44.0796 164.224 43.5768 163.456 43.3709C162.687 43.1649 161.868 43.2727 161.179 43.6706L162.679 46.2686ZM174.679 67.0532L172.081 68.5532L174.679 67.0532ZM26.7132 124.769L25.2132 122.171C23.7783 122.999 23.2867 124.834 24.1151 126.269L26.7132 124.769ZM15.7132 105.716L13.1151 107.216C13.9435 108.651 15.7783 109.143 17.2132 108.314L15.7132 105.716ZM4.77537 72.7712C-0.00755157 75.5326 -1.64631 81.6485 1.11512 86.4315L6.31127 83.4315C5.2067 81.5183 5.8622 79.0719 7.77537 77.9674L4.77537 72.7712ZM128.617 1.27122L4.77537 72.7712L7.77537 77.9674L131.617 6.46737L128.617 1.27122ZM142.277 4.93147C139.516 0.148546 133.4 -1.49021 128.617 1.27122L131.617 6.46737C133.53 5.3628 135.977 6.0183 137.081 7.93147L142.277 4.93147ZM154.277 25.7161L142.277 4.93147L137.081 7.93147L149.081 28.7161L154.277 25.7161ZM150.251 40.7424C148.042 36.916 149.353 32.0233 153.179 29.8142L150.179 24.618C143.483 28.484 141.189 37.0463 145.055 43.7424L150.251 40.7424ZM161.179 43.6706C157.353 45.8797 152.46 44.5687 150.251 40.7424L145.055 43.7424C148.921 50.4385 157.483 52.7327 164.179 48.8667L161.179 43.6706ZM177.277 65.5532L165.277 44.7686L160.081 47.7686L172.081 68.5532L177.277 65.5532ZM173.617 79.2135C178.4 76.4521 180.039 70.3362 177.277 65.5532L172.081 68.5532C173.186 70.4664 172.53 72.9128 170.617 74.0173L173.617 79.2135ZM49.7754 150.714L173.617 79.2135L170.617 74.0173L46.7754 145.517L49.7754 150.714ZM36.1151 147.053C38.8765 151.836 44.9924 153.475 49.7754 150.714L46.7754 145.517C44.8622 146.622 42.4158 145.966 41.3113 144.053L36.1151 147.053ZM24.1151 126.269L36.1151 147.053L41.3113 144.053L29.3113 123.269L24.1151 126.269ZM28.1414 111.242C30.3505 115.069 29.0395 119.961 25.2132 122.171L28.2132 127.367C34.9093 123.501 37.2035 114.938 33.3376 108.242L28.1414 111.242ZM17.2132 108.314C21.0395 106.105 25.9323 107.416 28.1414 111.242L33.3376 108.242C29.4716 101.546 20.9093 99.252 14.2132 103.118L17.2132 108.314ZM1.11512 86.4315L13.1151 107.216L18.3113 104.216L6.31127 83.4315L1.11512 86.4315Z" fill="white" mask="url(#path-1-inside-1)"/>
<path d="M55.2183 89.801L51.0692 92.1966L57.5843 103.481L54.7934 105.092L48.2783 93.8079L44.1849 96.1712L42.8798 93.9105L53.9131 87.5404L55.2183 89.801Z" fill="white"/>
<path d="M67.4444 97.7884L64.6535 99.3997L56.8332 85.8545L59.6241 84.2432L67.4444 97.7884Z" fill="white"/>
<path d="M79.2114 84.9787C79.9475 86.4971 80.0703 87.956 79.58 89.3554C79.0959 90.7513 78.06 91.9075 76.4723 92.8242C74.7357 93.8268 73.0316 94.0334 71.3599 93.4439C69.6908 92.8446 68.2672 91.5248 67.0892 89.4843L66.6111 88.6563C65.8592 87.3539 65.4262 86.0741 65.3123 84.8168C65.1983 83.5595 65.414 82.422 65.9593 81.4042C66.5072 80.3767 67.3455 79.5371 68.4743 78.8854C70.0372 77.9831 71.5379 77.6748 72.9764 77.9607C74.4149 78.2465 75.6455 79.1031 76.668 80.5305L73.8771 82.1418C73.304 81.3067 72.6938 80.8155 72.0465 80.6683C71.4018 80.5113 70.6515 80.6798 69.7956 81.174C68.8653 81.7111 68.3609 82.4488 68.2825 83.3872C68.2067 84.3158 68.5672 85.4845 69.364 86.8933L69.9549 87.9166C70.7999 89.3803 71.6378 90.323 72.4684 90.7448C73.3053 91.163 74.2012 91.0964 75.1563 90.545C76.0184 90.0473 76.5475 89.4813 76.7437 88.8471C76.9425 88.2031 76.8347 87.4507 76.4205 86.5901L79.2114 84.9787Z" fill="white"/>
<path d="M85.8977 79.8904L85.3488 82.2912L87.5831 86.1613L84.7922 87.7726L76.9719 74.2274L79.7628 72.6161L83.3078 78.7561L83.5636 76.3632L84.4422 69.9144L87.8751 67.9325L86.5405 76.7284L95.8349 81.3971L92.5137 83.3146L85.8977 79.8904Z" fill="white"/>
<path d="M102.79 69.5549L97.431 72.6486L99.5258 76.2768L105.815 72.646L107.109 74.888L98.0293 80.1302L90.209 66.585L99.2701 61.3535L100.575 63.6142L94.3051 67.2343L96.1688 70.4624L101.527 67.3687L102.79 69.5549Z" fill="white"/>
<path d="M113.757 56.004L109.607 58.3995L116.123 69.684L113.332 71.2954L106.817 60.0108L102.723 62.3741L101.418 60.1135L112.451 53.7433L113.757 56.004Z" fill="white"/>
<line x1="114.596" y1="13.9853" x2="155.596" y2="84.9994" stroke="white" stroke-width="3" stroke-linejoin="round" stroke-dasharray="7 7"/>
<rect x="28.3997" y="85.6898" width="96" height="3" rx="1.5" transform="rotate(-30 28.3997 85.6898)" fill="white"/>
<rect x="48.8997" y="121.197" width="96" height="3" rx="1.5" transform="rotate(-30 48.8997 121.197)" fill="white"/>
<mask id="path-7-inside-2" fill="white">
<path fill-rule="evenodd" clip-rule="evenodd" d="M2.69635 79.9924C2.69635 76.1264 5.83036 72.9924 9.69635 72.9924H152.696C156.562 72.9924 159.696 76.1264 159.696 79.9924V103.992C153.621 103.992 148.696 108.917 148.696 114.992C148.696 121.068 153.621 125.992 159.696 125.992V149.992C159.696 153.858 156.562 156.992 152.696 156.992H9.69635C5.83036 156.992 2.69635 153.858 2.69635 149.992V125.992C8.77148 125.992 13.6964 121.068 13.6964 114.992C13.6964 108.917 8.77148 103.992 2.69635 103.992V79.9924Z"/>
</mask>
<path fill-rule="evenodd" clip-rule="evenodd" d="M2.69635 79.9924C2.69635 76.1264 5.83036 72.9924 9.69635 72.9924H152.696C156.562 72.9924 159.696 76.1264 159.696 79.9924V103.992C153.621 103.992 148.696 108.917 148.696 114.992C148.696 121.068 153.621 125.992 159.696 125.992V149.992C159.696 153.858 156.562 156.992 152.696 156.992H9.69635C5.83036 156.992 2.69635 153.858 2.69635 149.992V125.992C8.77148 125.992 13.6964 121.068 13.6964 114.992C13.6964 108.917 8.77148 103.992 2.69635 103.992V79.9924Z" fill="#E50914"/>
<path d="M159.696 103.992V106.992C161.353 106.992 162.696 105.649 162.696 103.992H159.696ZM159.696 125.992H162.696C162.696 124.336 161.353 122.992 159.696 122.992V125.992ZM2.69635 125.992V122.992C1.0395 122.992 -0.30365 124.336 -0.30365 125.992H2.69635ZM2.69635 103.992H-0.30365C-0.30365 105.649 1.0395 106.992 2.69635 106.992L2.69635 103.992ZM9.69635 69.9924C4.1735 69.9924 -0.30365 74.4696 -0.30365 79.9924H5.69635C5.69635 77.7833 7.48721 75.9924 9.69635 75.9924V69.9924ZM152.696 69.9924H9.69635V75.9924H152.696V69.9924ZM162.696 79.9924C162.696 74.4696 158.219 69.9924 152.696 69.9924V75.9924C154.905 75.9924 156.696 77.7833 156.696 79.9924H162.696ZM162.696 103.992V79.9924H156.696V103.992H162.696ZM151.696 114.992C151.696 110.574 155.278 106.992 159.696 106.992V100.992C151.964 100.992 145.696 107.26 145.696 114.992H151.696ZM159.696 122.992C155.278 122.992 151.696 119.411 151.696 114.992H145.696C145.696 122.724 151.964 128.992 159.696 128.992V122.992ZM162.696 149.992V125.992H156.696V149.992H162.696ZM152.696 159.992C158.219 159.992 162.696 155.515 162.696 149.992H156.696C156.696 152.202 154.905 153.992 152.696 153.992V159.992ZM9.69635 159.992H152.696V153.992H9.69635V159.992ZM-0.30365 149.992C-0.30365 155.515 4.17351 159.992 9.69635 159.992V153.992C7.48721 153.992 5.69635 152.202 5.69635 149.992H-0.30365ZM-0.30365 125.992V149.992H5.69635V125.992H-0.30365ZM10.6964 114.992C10.6964 119.411 7.11463 122.992 2.69635 122.992V128.992C10.4283 128.992 16.6964 122.724 16.6964 114.992H10.6964ZM2.69635 106.992C7.11463 106.992 10.6964 110.574 10.6964 114.992H16.6964C16.6964 107.26 10.4283 100.992 2.69635 100.992V106.992ZM-0.30365 79.9924V103.992H5.69635V79.9924H-0.30365Z" fill="white" mask="url(#path-7-inside-2)"/>
<path d="M44.8663 109.962H40.0753V122.992H36.8526V109.962H32.126V107.352H44.8663V109.962Z" fill="white"/>
<path d="M51.4607 122.992H48.238V107.352H51.4607V122.992Z" fill="white"/>
<path d="M68.0561 117.782C67.9343 119.465 67.3113 120.79 66.1869 121.757C65.0697 122.724 63.5945 123.207 61.7612 123.207C59.7559 123.207 58.1768 122.534 57.0238 121.188C55.878 119.834 55.3051 117.979 55.3051 115.623V114.667C55.3051 113.163 55.5701 111.838 56.1 110.693C56.63 109.547 57.3855 108.669 58.3666 108.061C59.3549 107.445 60.5007 107.137 61.8041 107.137C63.6088 107.137 65.0626 107.62 66.1655 108.587C67.2683 109.554 67.9057 110.911 68.0776 112.658H64.8549C64.7761 111.649 64.4933 110.918 64.0063 110.467C63.5265 110.009 62.7924 109.78 61.8041 109.78C60.7299 109.78 59.9242 110.166 59.3871 110.94C58.8572 111.706 58.585 112.898 58.5707 114.517V115.698C58.5707 117.389 58.825 118.624 59.3334 119.405C59.849 120.185 60.6583 120.575 61.7612 120.575C62.7566 120.575 63.4978 120.35 63.9848 119.899C64.4789 119.44 64.7618 118.735 64.8334 117.782H68.0561Z" fill="white"/>
<path d="M76.3907 116.719L74.7149 118.524V122.992H71.4923V107.352H74.7149V114.442L76.1329 112.497L80.1183 107.352H84.0821L78.5284 114.302L84.2433 122.992H80.4083L76.3907 116.719Z" fill="white"/>
<path d="M96.1873 116.214H89.9998V120.404H97.2615V122.992H86.7771V107.352H97.24V109.962H89.9998V113.69H96.1873V116.214Z" fill="white"/>
<path d="M112.46 109.962H107.669V122.992H104.447V109.962H99.7202V107.352H112.46V109.962Z" fill="white"/>
<line x1="134.196" y1="73.9924" x2="134.196" y2="155.992" stroke="white" stroke-width="3" stroke-linejoin="round" stroke-dasharray="7 7"/>
<rect x="23.6964" y="92.9924" width="96" height="3" rx="1.5" fill="white"/>
<rect x="23.6964" y="133.992" width="96" height="3" rx="1.5" fill="white"/>
</svg>
